<svg width="19" height="20" viewBox="0 0 19 20" fill="none" xmlns="http://www.w3.org/2000/svg">
<path d="M2.35046 2.5H16.4635C16.6714 2.5 16.8709 2.5878 17.0179 2.74408C17.1649 2.90036 17.2475 3.11232 17.2475 3.33333V16.6667C17.2475 16.8877 17.1649 17.0996 17.0179 17.2559C16.8709 17.4122 16.6714 17.5 16.4635 17.5H2.35046C2.14252 17.5 1.94309 17.4122 1.79605 17.2559C1.64901 17.0996 1.56641 16.8877 1.56641 16.6667V3.33333C1.56641 3.11232 1.64901 2.90036 1.79605 2.74408C1.94309 2.5878 2.14252 2.5 2.35046 2.5V2.5ZM15.6794 6.03167L9.46342 11.9483L3.13452 6.01333V15.8333H15.6794V6.03167ZM3.53517 4.16667L9.4548 9.71833L15.289 4.16667H3.53517Z" fill="#8181AC"/>
</svg>
